<svg width="232" height="47" viewBox="0 0 232 47" fill="none" xmlns="http://www.w3.org/2000/svg">
<path d="M81.2273 11.4829H60.7727H60.5C59.3954 11.4829 58.5 12.3786 58.5 13.4832C58.5 13.663 58.5 13.7904 58.5 13.8229V34.2774V34.4829C58.5 35.5875 59.3957 36.4829 60.5003 36.4829C60.6438 36.4829 60.744 36.4829 60.7727 36.4829H81.2273C81.256 36.4829 81.3562 36.4829 81.4997 36.4829C82.6043 36.4829 83.5 35.587 83.5 34.4824C83.5 34.3756 83.5 34.3017 83.5 34.2774V13.8229C83.5 13.7903 83.5 13.663 83.5 13.4832C83.5 12.3786 82.6043 11.4829 81.4997 11.4829C81.3562 11.4829 81.256 11.4829 81.2273 11.4829ZM73.2727 34.2774H60.7727V25.1865H73.2727V34.2774ZM73.2727 22.9138H60.7727V13.8229L73.2727 13.8229V22.9138ZM81.2273 34.2774H75.5455V13.8229H81.2273V34.2774Z" fill="#CDCDCD"/>
<path d="M101.773 20.7556C101.705 20.1799 101.428 19.7329 100.943 19.4147C100.458 19.0965 99.8636 18.9375 99.1591 18.9375C98.6439 18.9375 98.1932 19.0208 97.8068 19.1875C97.4242 19.3541 97.125 19.5833 96.9091 19.875C96.697 20.1666 96.5909 20.4981 96.5909 20.8693C96.5909 21.1799 96.6648 21.4469 96.8125 21.6704C96.964 21.8901 97.1572 22.0738 97.392 22.2215C97.6269 22.3655 97.8731 22.4848 98.1307 22.5795C98.3883 22.6704 98.625 22.7443 98.8409 22.8011L100.023 23.1193C100.326 23.1988 100.663 23.3087 101.034 23.4488C101.409 23.589 101.767 23.7803 102.108 24.0227C102.453 24.2613 102.737 24.5681 102.96 24.9431C103.184 25.3181 103.295 25.7784 103.295 26.3238C103.295 26.9526 103.131 27.5208 102.801 28.0284C102.475 28.5359 101.998 28.9393 101.369 29.2386C100.744 29.5378 99.9848 29.6875 99.0909 29.6875C98.2576 29.6875 97.536 29.553 96.9261 29.284C96.3201 29.0151 95.8428 28.6401 95.4943 28.159C95.1496 27.678 94.9545 27.1193 94.9091 26.4829H96.3636C96.4015 26.9223 96.5492 27.2859 96.8068 27.5738C97.0682 27.8579 97.3977 28.07 97.7955 28.2102C98.197 28.3465 98.6288 28.4147 99.0909 28.4147C99.6288 28.4147 100.112 28.3276 100.54 28.1534C100.968 27.9753 101.307 27.7291 101.557 27.4147C101.807 27.0965 101.932 26.7253 101.932 26.3011C101.932 25.9147 101.824 25.6003 101.608 25.3579C101.392 25.1155 101.108 24.9185 100.756 24.767C100.403 24.6155 100.023 24.4829 99.6136 24.3693L98.1818 23.9602C97.2727 23.6988 96.553 23.3257 96.0227 22.8409C95.4924 22.356 95.2273 21.7215 95.2273 20.9375C95.2273 20.2859 95.4034 19.7178 95.7557 19.2329C96.1117 18.7443 96.589 18.3655 97.1875 18.0965C97.7898 17.8238 98.4621 17.6875 99.2045 17.6875C99.9545 17.6875 100.621 17.8219 101.205 18.0909C101.788 18.356 102.25 18.7197 102.591 19.1818C102.936 19.6439 103.117 20.1685 103.136 20.7556H101.773ZM110.93 25.9147V20.7556H112.271V29.4829H110.93V28.0056H110.839C110.635 28.4488 110.317 28.8257 109.885 29.1363C109.453 29.4431 108.908 29.5965 108.249 29.5965C107.703 29.5965 107.218 29.4772 106.794 29.2386C106.37 28.9962 106.036 28.6325 105.794 28.1477C105.552 27.659 105.43 27.0435 105.43 26.3011V20.7556H106.771V26.2102C106.771 26.8465 106.949 27.3541 107.305 27.7329C107.665 28.1117 108.124 28.3011 108.68 28.3011C109.014 28.3011 109.353 28.2159 109.697 28.0454C110.046 27.875 110.338 27.6136 110.572 27.2613C110.811 26.909 110.93 26.4602 110.93 25.9147ZM114.727 29.4829V20.7556H116.023V22.1193H116.136C116.318 21.6534 116.612 21.2916 117.017 21.034C117.422 20.7727 117.909 20.642 118.477 20.642C119.053 20.642 119.532 20.7727 119.915 21.034C120.301 21.2916 120.602 21.6534 120.818 22.1193H120.909C121.133 21.6685 121.468 21.3106 121.915 21.0454C122.362 20.7765 122.898 20.642 123.523 20.642C124.303 20.642 124.941 20.8863 125.438 21.375C125.934 21.8598 126.182 22.6155 126.182 23.642V29.4829H124.841V23.642C124.841 22.9981 124.665 22.5378 124.312 22.2613C123.96 21.9848 123.545 21.8465 123.068 21.8465C122.455 21.8465 121.979 22.0322 121.642 22.4034C121.305 22.7708 121.136 23.2367 121.136 23.8011V29.4829H119.773V23.5056C119.773 23.0094 119.612 22.6098 119.29 22.3068C118.968 22 118.553 21.8465 118.045 21.8465C117.697 21.8465 117.371 21.9393 117.068 22.125C116.769 22.3106 116.527 22.5681 116.341 22.8977C116.159 23.2234 116.068 23.6003 116.068 24.0284V29.4829H114.727ZM128.634 29.4829V20.7556H129.929V22.1193H130.043C130.224 21.6534 130.518 21.2916 130.923 21.034C131.329 20.7727 131.815 20.642 132.384 20.642C132.959 20.642 133.438 20.7727 133.821 21.034C134.207 21.2916 134.509 21.6534 134.724 22.1193H134.815C135.039 21.6685 135.374 21.3106 135.821 21.0454C136.268 20.7765 136.804 20.642 137.429 20.642C138.209 20.642 138.848 20.8863 139.344 21.375C139.84 21.8598 140.088 22.6155 140.088 23.642V29.4829H138.747V23.642C138.747 22.9981 138.571 22.5378 138.219 22.2613C137.866 21.9848 137.452 21.8465 136.974 21.8465C136.361 21.8465 135.885 22.0322 135.548 22.4034C135.211 22.7708 135.043 23.2367 135.043 23.8011V29.4829H133.679V23.5056C133.679 23.0094 133.518 22.6098 133.196 22.3068C132.874 22 132.459 21.8465 131.952 21.8465C131.603 21.8465 131.277 21.9393 130.974 22.125C130.675 22.3106 130.433 22.5681 130.247 22.8977C130.065 23.2234 129.974 23.6003 129.974 24.0284V29.4829H128.634ZM145.108 29.6875C144.555 29.6875 144.053 29.5833 143.602 29.375C143.152 29.1628 142.794 28.8579 142.528 28.4602C142.263 28.0587 142.131 27.5738 142.131 27.0056C142.131 26.5056 142.229 26.1003 142.426 25.7897C142.623 25.4753 142.886 25.2291 143.216 25.0511C143.545 24.8731 143.909 24.7405 144.307 24.6534C144.708 24.5625 145.112 24.4905 145.517 24.4375C146.047 24.3693 146.477 24.3181 146.807 24.284C147.14 24.2462 147.383 24.1837 147.534 24.0965C147.689 24.0094 147.767 23.8579 147.767 23.642V23.5965C147.767 23.0359 147.614 22.6003 147.307 22.2897C147.004 21.9791 146.544 21.8238 145.926 21.8238C145.286 21.8238 144.784 21.964 144.42 22.2443C144.057 22.5246 143.801 22.8238 143.653 23.142L142.381 22.6875C142.608 22.1572 142.911 21.7443 143.29 21.4488C143.672 21.1496 144.089 20.9412 144.54 20.8238C144.994 20.7026 145.441 20.642 145.881 20.642C146.161 20.642 146.483 20.6761 146.847 20.7443C147.214 20.8087 147.568 20.9431 147.909 21.1477C148.254 21.3522 148.54 21.6609 148.767 22.0738C148.994 22.4867 149.108 23.0397 149.108 23.7329V29.4829H147.767V28.3011H147.699C147.608 28.4905 147.456 28.6931 147.244 28.909C147.032 29.125 146.75 29.3087 146.398 29.4602C146.045 29.6117 145.616 29.6875 145.108 29.6875ZM145.312 28.4829C145.843 28.4829 146.29 28.3787 146.653 28.1704C147.021 27.9621 147.297 27.6931 147.483 27.3636C147.672 27.034 147.767 26.6875 147.767 26.3238V25.0965C147.71 25.1647 147.585 25.2272 147.392 25.284C147.203 25.3371 146.983 25.3844 146.733 25.4261C146.487 25.464 146.246 25.4981 146.011 25.5284C145.78 25.5549 145.593 25.5776 145.449 25.5965C145.1 25.642 144.775 25.7159 144.472 25.8181C144.172 25.9166 143.93 26.0662 143.744 26.267C143.563 26.464 143.472 26.7329 143.472 27.0738C143.472 27.5397 143.644 27.892 143.989 28.1306C144.337 28.3655 144.778 28.4829 145.312 28.4829ZM151.555 29.4829V20.7556H152.851V22.0738H152.942C153.101 21.642 153.389 21.2916 153.805 21.0227C154.222 20.7537 154.692 20.6193 155.214 20.6193C155.313 20.6193 155.436 20.6212 155.584 20.625C155.732 20.6287 155.843 20.6344 155.919 20.642V22.0056C155.874 21.9943 155.769 21.9772 155.607 21.9545C155.447 21.928 155.279 21.9147 155.101 21.9147C154.677 21.9147 154.298 22.0037 153.964 22.1818C153.635 22.356 153.374 22.5984 153.18 22.909C152.991 23.2159 152.896 23.5662 152.896 23.9602V29.4829H151.555ZM158.638 32.7556C158.411 32.7556 158.208 32.7367 158.03 32.6988C157.852 32.6647 157.729 32.6306 157.661 32.5965L158.001 31.4147C158.327 31.4981 158.615 31.5284 158.865 31.5056C159.115 31.4829 159.337 31.3712 159.53 31.1704C159.727 30.9734 159.907 30.6534 160.07 30.2102L160.32 29.5284L157.092 20.7556H158.547L160.956 27.7102H161.047L163.456 20.7556H164.911L161.206 30.7556C161.039 31.2064 160.833 31.5795 160.587 31.875C160.34 32.1742 160.054 32.3958 159.729 32.5397C159.407 32.6837 159.043 32.7556 158.638 32.7556Z" fill="#CDCDCD"/>
</svg>
